<svg id="Layer_1" data-name="Layer 1" xmlns="http://www.w3.org/2000/svg" viewBox="0 0 169.39 51.88"><defs><style>.cls-1{fill:#fff;}</style></defs><title>VRC WHITE LOGO</title><path class="cls-1" d="M344.08,253.16h0c.18-15.27,11.88-22.43,25.63-22.43,13.14,0,17.22,5.85,18.57,10.95a2.22,2.22,0,0,0,2.45-.15V231.41a1.14,1.14,0,0,0-.6-.89h-1.31a12.35,12.35,0,0,1-1.9-.31,83.66,83.66,0,0,0-16-1.8c-9.42,0-17.85,2.1-24.46,6.37-6.8,4.37-10.14,11.37-10.25,19.57.11,8.19,3.44,15.2,10.25,19.57,6.61,4.27,15,6.37,24.46,6.37a83.54,83.54,0,0,0,16-1.8,12.54,12.54,0,0,1,1.9-.31h1.31a1.14,1.14,0,0,0,.6-.89V267.17a2.23,2.23,0,0,0-2.45-.15c-1.36,5.1-5.43,10.95-18.57,10.95-13.75,0-25.44-7.16-25.63-22.43h0" transform="translate(-221.34 -228.4)"/><path class="cls-1" d="M346.26,278.19a12.1,12.1,0,0,1-6.25-2.1c-6.16-4.27-11-10.27-18.21-19.94-.45-.6-.35-1.15.26-1.35,4.53-1.5,9.45-2.86,9.45-13,0-5.25-2-8.62-6.36-10.5-4.17-1.88-14.84-2.25-20.45-2.25H269a1.18,1.18,0,0,0-.18,1.89l1.63.15c3.17.3,4.08.9,4.08,1.42a6.8,6.8,0,0,1-.82,2.92l-17.12,33.44-17.39-36.37c.09-.6.81-1,4.26-1.42l1.36-.15a1.17,1.17,0,0,0-.18-1.88H221.95a1.13,1.13,0,0,0-.18,1.88l2.79.15c3.89.38,5.26,2,7.34,6.15l20.11,42h3.52L280,233.74c1.06-1.65,1.77-2.51,3.94-2.61,3.27.15,3.65,2.6,3.65,9.49v24.29c0,7.87-.18,8.85-5.43,9.37l-3.43.22a1.27,1.27,0,0,0,.18,1.88h24.43a1.28,1.28,0,0,0,.18-1.88l-3.07-.22c-5.26-.6-5.44-1.5-5.44-9.37v-5.66c0-1.57.18-1.65,4.26-1.65,3.63,0,14.1-.41,15.46,1.24,2.81,3.37,6.52,8.54,8.88,11.32,6.43,7.57,11.05,9.44,18.75,9.44a16.77,16.77,0,0,0,4-.37A.57.57,0,0,0,346.26,278.19Zm-44.72-24c-4.62,0-6-.15-6.25-.37s-.27-1.13-.27-2.47V233.8c0-2.1.27-2.4,5.89-2.4,20.54,0,23.52,4.28,23.52,11.54,0,5.1-2.08,7.72-4.53,9.3C317.27,253.9,304.8,254.2,301.53,254.2Z" transform="translate(-221.34 -228.4)"/></svg>